# xmcd
#
# Track frame offsets:
#	150
#	19687
#	35512
#	53212
#	73175
#	95137
#	109775
#	132075
#	152175
#	172862
#	188900
#	203600
#	226025
#	243300
#	264675
#	281025
#	302975
#	327600
#
# Disc length: 4601
#
# Revision: 2
# Processed by: cddbd v1.5.1PL0 Copyright (c) Steve Scherf et al.
# Submitted via: audiograbber 1.80.04
# Normalized: r1:DSETVAR1,TDELIM( - )
#
DISCID=0311f712
DTITLE=Various Artist - Best Of Emozioni
DYEAR=1995
DGENRE=Slow Jam
TTITLE0=Umberto Tozzi - Io Muoio di te
TTITLE1=Riccardo Fogli - Torna a sorridere
TTITLE2=Angelo Branduardi - Fou de love
TTITLE3=Gerardina Trovato - Ma non ho piu la mia citta
TTITLE4=Toto Cutugno - Adulele
TTITLE5=Gepy and Gepy - Angelo Blu
TTITLE6=Jo Chiarello - Ma che bella storia l'amore
TTITLE7=Gazebo - Attimi diversi
TTITLE8=Angelo Fabiani - Cosa mi fai
TTITLE9=Flavia Fortunato - Nuovo amore mio
TTITLE10=Nino d'Angelo - Comme te voglio bene
TTITLE11=Julie - Ricominciare
TTITLE12=Mario Castelnuovo - Cosi'sia
TTITLE13=Fiordaliso - Fatti miei
TTITLE14=Fausto Leali - Il cammino del cuore
TTITLE15=Mietta - Vivro vivrai vivremo noi
TTITLE16=Claudio Baglioni - Questo piccolo grande amore
TTITLE17=Amedeo Minghi and Viktor Laszlo - Vattene amore
EXTD=
EXTT0=
EXTT1=
EXTT2=
EXTT3=
EXTT4=
EXTT5=
EXTT6=
EXTT7=
EXTT8=
EXTT9=
EXTT10=
EXTT11=
EXTT12=
EXTT13=
EXTT14=
EXTT15=
EXTT16=
EXTT17=
PLAYORDER=
